# xmcd
#
# Track frame offsets:
#	150
#	26932
#	52844
#	76922
#	102038
#	127193
#	149380
#	179741
#
# Disc length: 2887 seconds
#
# Revision: 1
# Processed by: cddbd v1.5.2PL0 Copyright (c) Steve Scherf et al.
# Submitted via: audiograbber 1.83.01
#
DISCID=6d0b4508
DTITLE=Grateful Dead - 74-05-12 University of Nevada, Reno NV
DYEAR=1900
DGENRE=
TTITLE0=El Paso
TTITLE1=US Blues
TTITLE2=Greatest Story Ever Told
TTITLE3=It Must Have Been The Roses
TTITLE4=Me and My Uncle
TTITLE5=Deal
TTITLE6=Around and Around
TTITLE7=Mississippi Half-Step
EXTD=
EXTT0=
EXTT1=
EXTT2=
EXTT3=
EXTT4=
EXTT5=
EXTT6=
EXTT7=
PLAYORDER=
